<svg xmlns="http://www.w3.org/2000/svg" width="126" height="100" viewBox="0 0 654 307.69"><defs><style>.cls-1{fill:#fff}.cls-2{font-size:110.68px;font-family:ZillaSlabRegular,Zilla Slab;letter-spacing:.01em}.cls-3{letter-spacing:-.03em}</style></defs><title>Asset 4</title><g id="Layer_2" data-name="Layer 2"><g id="Layer_3" data-name="Layer 3"><rect width="654" height="187.01"/><path d="M642.36,137.78a13.29,13.29,0,0,1-3.69.6c-4.12,0-6-1.76-6-6.82V93.34c0-20.08-16-29.85-34.91-29.85-14.45,0-22.22,1.76-37.66,8l-3.44,20.25,20.07,2.15L579.53,84c4.11-2.14,8.19-2.53,13.47-2.53,14.24,0,14.45,10.72,14.45,19.69V104a112.74,112.74,0,0,0-14.45-.78c-20.08,0-41,5.07-41,26.72,0,18.32,14.41,25.18,27.1,25.18,14.24,0,23.21-8.58,28.27-17.55,1.16,10.73,7.6,17.55,19.3,17.55A33.61,33.61,0,0,0,642.5,151Zm-54-.56c-7.6,0-10.34-4.5-10.34-10.16,0-9.57,7.8-12.1,16.77-12.1a97.64,97.64,0,0,1,12.69,1.16C606.88,130.78,597.32,137.22,588.36,137.22ZM554.57,19l-38,134.2H491.74l38-134.2Zm-51.09,0-38,134.2H440.69l38-134.2ZM397.87,65.25H424.2V96.82H397.87Zm0,56.36H424.2v31.6H397.87Zm-38.32-1.16,19.9,1.93L374,153.21H297.14L294.61,140,343,84.37h-27.5L311.59,98l-18.14-2,3.13-30.84h77.24l2,13.26L327,134.09h28.48Zm-126-57c-31.6,0-47.21,21.27-47.21,47,0,28.09,18.74,44.65,45.84,44.65,28.09,0,48.38-17.76,48.38-45.85C280.51,84.72,265.08,63.49,233.5,63.49Zm-.59,72.35c-13.65,0-20.68-11.7-20.68-26.93,0-16.59,8-26.12,20.89-26.12,11.88,0,21.44,8,21.44,25.74C254.56,125.3,246,135.84,232.91,135.84Zm-69.27-1.75h11.71v19.12H138.47V103.67c0-15.22-5.06-21-15-21-12.1,0-17,8.57-17,20.88v30.59h11.7v19.12H81.34V103.67c0-15.22-5.06-21-15-21-12.1,0-17,8.57-17,20.88v30.59H66.12v19.12H12.5V134.09H24.21V84.34H12.5V65.21H49.34V78.47c5.28-9.36,14.45-15,26.73-15,12.69,0,24.36,6,28.68,18.92,4.89-11.71,14.84-18.92,28.69-18.92,15.79,0,30.24,9.57,30.24,30.42v40.22Z" class="cls-1"/><text class="cls-2" transform="translate(11.5 281.9)">RA<tspan x="141.78" y="0" class="cls-3">J</tspan><tspan x="189.38" y="0">ASTHAN</tspan></text></g></g></svg>